<!-- Generator: Adobe Illustrator 22.0.0, SVG Export Plug-In  -->
<svg version="1.1"
	 xmlns="http://www.w3.org/2000/svg" xmlns:xlink="http://www.w3.org/1999/xlink" xmlns:a="http://ns.adobe.com/AdobeSVGViewerExtensions/3.0/"
	 x="0px" y="0px" width="278.7px" height="56.7px" viewBox="0 0 278.7 56.7"
	 style="overflow:scroll;enable-background:new 0 0 278.7 56.7;" xml:space="preserve">
<style type="text/css">
	.st0{fill:#989FA7;}
</style>
<defs>
</defs>
<g>
	<path class="st0" d="M67.8,24.6c0.7-0.3,1.3-1,1.3-1.9c0-1.2-1.1-1.9-2.3-2v0c0.7-0.1,1.8-0.7,1.8-1.8c0-0.7-0.3-1.1-0.7-1.4
		c-0.5-0.3-1.1-0.4-1.9-0.4h-4v0.4c1.1,0.1,1.2,0.2,1.2,1.5v4.2c0,1.3-0.1,1.4-1.3,1.5V25h3.6C66.2,25,67.1,24.9,67.8,24.6z
		 M64.4,17.9c0-0.4,0-0.5,0.9-0.5c0.9,0,1.7,0.4,1.7,1.5c0,1.1-0.8,1.5-1.6,1.5h-1V17.9z M64.4,23.1v-2.2h0.9c1.1,0,2.1,0.5,2.1,1.8
		c0,1.2-0.8,1.8-1.8,1.8C64.8,24.5,64.4,24.3,64.4,23.1z"/>
	<path class="st0" d="M73.5,24.6l-0.4,0c-0.5,0-0.7-0.2-0.5-0.8c0.2-0.5,0.5-1.4,0.6-1.7h2.5l0.6,1.4c0.4,0.8,0.2,1-0.3,1l-0.3,0V25
		h3.6v-0.4c-0.8-0.1-1.1-0.1-1.6-1.2l-2.7-6.6l-0.4,0.1L72,23.2c-0.5,1.2-0.8,1.3-1.6,1.4V25h3.1V24.6L73.5,24.6z M74.4,18.7
		L74.4,18.7l1.1,2.7h-2.1L74.4,18.7z"/>
	<path class="st0" d="M82.9,23.9c-0.1-0.4-0.1-1-0.1-2.3V19h0l5.5,6.1h0.6v-4.7c0-1.3,0.1-1.9,0.1-2.3c0.1-0.4,0.5-0.6,1.2-0.7V17
		h-3.4v0.4c0.9,0.1,1.3,0.2,1.4,0.7c0.1,0.4,0.1,1,0.1,2.3v2.5h0L82.8,17h-2.2v0.4c1.2,0.1,1.5,0.4,1.5,1.8v2.4
		c0,1.3-0.1,1.9-0.1,2.3c-0.1,0.4-0.4,0.6-1.2,0.7V25h3.4v-0.4C83.3,24.5,82.9,24.3,82.9,23.9z"/>
	<path class="st0" d="M99,24.8c0.2-0.5,0.5-1.6,0.7-2.2l-0.4-0.1c-0.7,1.4-1.3,2.1-2.7,2.1c-1.9,0-3.2-1.5-3.2-3.8
		c0-2,1.1-3.5,3-3.5c1.2,0,2.1,0.4,2.5,2l0.5-0.1c-0.1-0.8-0.1-1.5-0.2-2.1c-0.4-0.1-1.3-0.3-2.5-0.3c-2.7,0-4.9,1.7-4.9,4.3
		c0,2,1.5,4.1,4.7,4.1C97.4,25.2,98.6,24.9,99,24.8z"/>
	<path class="st0" d="M105.5,16.8c-1.9,0-4.3,1.4-4.3,4.4c0,1.9,1.5,4,4.3,4c2.1,0,4.2-1.5,4.2-4.3
		C109.8,18.6,108.1,16.8,105.5,16.8z M105.7,24.6c-1.8,0-2.8-1.6-2.8-3.9c0-2.2,1-3.4,2.5-3.4c1.8,0,2.8,1.9,2.8,3.9
		C108.1,23.7,107,24.6,105.7,24.6z"/>
	<path class="st0" d="M123.4,24.8c0.2-0.5,0.5-1.6,0.7-2.2l-0.4-0.1c-0.7,1.4-1.3,2.1-2.7,2.1c-1.9,0-3.2-1.5-3.2-3.8
		c0-2,1.1-3.5,3-3.5c1.2,0,2.1,0.4,2.5,2l0.5-0.1c-0.1-0.8-0.1-1.5-0.2-2.1c-0.5-0.1-1.3-0.3-2.5-0.3c-2.7,0-4.9,1.7-4.9,4.3
		c0,2,1.5,4.1,4.7,4.1C121.8,25.2,123,24.9,123.4,24.8z"/>
	<path class="st0" d="M132.7,22.9l-0.5-0.1c-0.2,0.6-0.4,1-0.6,1.2c-0.3,0.3-0.9,0.4-1.6,0.4c-0.8,0-1.2,0-1.4-0.1
		c-0.3-0.1-0.3-0.5-0.3-1.2v-2h1.4c1.1,0,1.2,0.1,1.3,1h0.4v-2.6h-0.4c-0.1,0.9-0.2,1-1.3,1h-1.4V18c0-0.4,0-0.4,0.5-0.4h1
		c0.9,0,1.3,0.2,1.4,0.4c0.2,0.2,0.3,0.5,0.4,1.1l0.4,0c-0.1-0.8-0.1-1.7-0.1-2h-6.3v0.4c1.1,0.1,1.2,0.2,1.2,1.5V23
		c0,1.3-0.1,1.4-1.3,1.5V25h6.8C132.3,24.6,132.6,23.3,132.7,22.9z"/>
	<path class="st0" d="M135.5,23.9c-0.1,0.4-0.5,0.6-1.2,0.7V25h3.4v-0.4c-0.9-0.1-1.3-0.3-1.3-0.7c-0.1-0.4-0.1-1-0.1-2.3V19h0
		l5.5,6.1h0.6v-4.7c0-1.3,0.1-1.9,0.1-2.3c0.1-0.4,0.4-0.6,1.2-0.7V17h-3.4v0.4c0.9,0.1,1.3,0.2,1.4,0.7c0.1,0.4,0.1,1,0.1,2.3v2.5
		h0l-5.3-5.9h-2.2v0.4c1.2,0.1,1.5,0.4,1.5,1.8v2.4C135.6,22.9,135.5,23.5,135.5,23.9z"/>
	<path class="st0" d="M146.9,24.6V25h4.1v-0.4c-1.3-0.1-1.4-0.2-1.4-1.5v-5.6h0.8c0.8,0,1.2,0.1,1.4,0.3c0.2,0.2,0.3,0.5,0.5,1.3
		l0.4,0c-0.1-0.8-0.1-1.9-0.2-2.4h-0.2c-0.2,0.2-0.3,0.3-0.6,0.3h-5.6c-0.3,0-0.5,0-0.7-0.3h-0.2c0,0.6-0.1,1.5-0.2,2.4h0.4
		c0.2-0.7,0.3-1,0.5-1.2c0.2-0.2,0.6-0.4,1.6-0.4h0.6v5.6C148.2,24.4,148.1,24.5,146.9,24.6z"/>
	<path class="st0" d="M158.6,24.6c-1.1-0.1-1.3-0.2-1.3-1.5v-1.5h0.5c0.5,0,0.6,0.1,0.9,0.5c0.3,0.5,0.8,1.4,1.2,2
		c0.5,0.7,1.1,1.1,2.6,1.1h0.3l0.1-0.4c-0.4-0.1-0.7-0.3-0.9-0.5c-0.3-0.3-0.6-0.7-1.1-1.3c-0.4-0.5-1-1.4-1.2-1.8
		c1-0.4,1.7-1,1.7-2.1c0-0.8-0.4-1.3-0.9-1.6c-0.5-0.3-1.2-0.4-2-0.4h-3.9v0.4c1.1,0.1,1.2,0.2,1.2,1.5v4.2c0,1.3-0.1,1.4-1.3,1.5
		V25h3.9V24.6z M157.4,18c0-0.5,0-0.5,0.8-0.5c1,0,1.8,0.5,1.8,1.7c0,0.6-0.2,1.2-0.7,1.5c-0.4,0.2-0.8,0.3-1.2,0.3h-0.8V18z"/>
	<path class="st0" d="M169.7,24.5l-0.3,0V25h3.6v-0.4c-0.8-0.1-1.1-0.1-1.6-1.2l-2.7-6.6l-0.4,0.1l-2.7,6.3
		c-0.5,1.2-0.8,1.3-1.6,1.4V25h3.1v-0.4l-0.4,0c-0.5,0-0.7-0.2-0.5-0.8c0.2-0.5,0.5-1.4,0.6-1.7h2.5l0.6,1.5
		C170.4,24.3,170.2,24.5,169.7,24.5z M167.1,21.4l1-2.7h0l1,2.7H167.1z"/>
	<path class="st0" d="M181.5,22.8l-0.5-0.1c-0.2,0.6-0.4,1-0.6,1.2c-0.3,0.3-0.9,0.4-1.6,0.4c-0.7,0-1,0-1.3-0.1
		c-0.3-0.1-0.3-0.5-0.3-1.2v-4.2c0-1.3,0.1-1.4,1.3-1.5V17h-4v0.4c1.1,0.1,1.3,0.1,1.3,1.5V23c0,1.3-0.1,1.4-1.3,1.5V25h6.5
		C181.1,24.6,181.4,23.2,181.5,22.8z"/>
	<path class="st0" d="M65.8,31.8h-3.9v0.4c1.1,0.1,1.2,0.2,1.2,1.5v4.2c0,1.3-0.1,1.4-1.3,1.5v0.4h3.5c2.9,0,5.3-1.3,5.3-4.3
		c0-1.1-0.5-2.1-1.1-2.6C68.6,32.1,67.3,31.8,65.8,31.8z M65.7,39.3c-1.1,0-1.3-0.3-1.3-1.3V33c0-0.3,0-0.5,0.1-0.6
		c0.1-0.1,0.4-0.1,0.9-0.1c2.2,0,3.5,1,3.5,3.5C68.9,37.9,67.9,39.3,65.7,39.3z"/>
	<path class="st0" d="M78.5,38.9c-0.3,0.3-0.9,0.4-1.6,0.4c-0.8,0-1.2,0-1.4-0.1c-0.3-0.1-0.3-0.5-0.3-1.2v-2h1.4
		c1.1,0,1.2,0.1,1.3,1h0.4v-2.6h-0.4c-0.1,0.9-0.2,1-1.3,1h-1.4v-2.5c0-0.4,0-0.4,0.5-0.4h1c0.9,0,1.3,0.2,1.4,0.4
		c0.2,0.2,0.3,0.5,0.4,1.2l0.5,0c-0.1-0.8-0.1-1.7-0.1-2h-6.3v0.4c1.1,0.1,1.2,0.2,1.2,1.5v4.2c0,1.3-0.1,1.4-1.3,1.5v0.4h6.8
		c0.1-0.3,0.4-1.6,0.5-2.1l-0.5-0.1C78.9,38.3,78.7,38.6,78.5,38.9z"/>
	<path class="st0" d="M91.7,38.8c-0.3,0.3-0.9,0.4-1.6,0.4c-0.7,0-1,0-1.3-0.1c-0.3-0.1-0.3-0.5-0.3-1.2v-4.2c0-1.3,0.1-1.4,1.3-1.5
		v-0.4h-4v0.4c1.1,0.1,1.3,0.1,1.3,1.5v4.2c0,1.3-0.1,1.4-1.3,1.5v0.4h6.5c0.1-0.3,0.4-1.7,0.5-2.1l-0.5-0.1
		C92.1,38.2,91.9,38.6,91.7,38.8z"/>
	<path class="st0" d="M101.3,38.2l-2.7-6.6l-0.4,0.1L95.6,38c-0.5,1.2-0.8,1.3-1.6,1.4v0.4h3.1v-0.4l-0.4,0c-0.5,0-0.7-0.2-0.5-0.8
		c0.2-0.5,0.5-1.4,0.6-1.7h2.5l0.6,1.5c0.4,0.8,0.2,1-0.3,1l-0.3,0v0.4h3.6v-0.4C102.1,39.3,101.8,39.3,101.3,38.2z M97,36.2l1-2.7
		h0l1,2.7H97z"/>
	<path class="st0" d="M115.2,37.7c-0.4-0.5-1-1.4-1.2-1.8c1-0.4,1.7-1,1.7-2.1c0-0.8-0.4-1.3-0.9-1.7c-0.5-0.3-1.2-0.4-2-0.4H109
		v0.4c1.1,0.1,1.2,0.2,1.2,1.5v4.2c0,1.3-0.1,1.4-1.3,1.5v0.4h3.9v-0.4c-1.1-0.1-1.3-0.2-1.3-1.5v-1.5h0.5c0.5,0,0.6,0.1,0.9,0.5
		c0.3,0.5,0.8,1.4,1.2,2c0.5,0.7,1.1,1.1,2.6,1.1h0.3l0.1-0.4c-0.4-0.1-0.7-0.3-0.9-0.5C116,38.7,115.6,38.3,115.2,37.7z
		 M113.6,35.6c-0.4,0.2-0.8,0.3-1.2,0.3h-0.8v-3c0-0.5,0-0.5,0.8-0.5c1,0,1.8,0.5,1.8,1.7C114.3,34.6,114.1,35.3,113.6,35.6z"/>
	<path class="st0" d="M124.4,38.9c-0.3,0.3-0.9,0.4-1.6,0.4c-0.8,0-1.2,0-1.4-0.1c-0.3-0.1-0.3-0.5-0.3-1.2v-2h1.4
		c1.1,0,1.2,0.1,1.3,1h0.4v-2.6h-0.4c-0.1,0.9-0.2,1-1.3,1H121v-2.5c0-0.4,0-0.4,0.5-0.4h1c0.9,0,1.3,0.2,1.4,0.4s0.3,0.5,0.4,1.2
		l0.4,0c-0.1-0.8-0.1-1.7-0.1-2h-6.3v0.4c1.1,0.1,1.2,0.2,1.2,1.5v4.2c0,1.3-0.1,1.4-1.3,1.5v0.4h6.8c0.1-0.3,0.4-1.6,0.5-2.1
		l-0.5-0.1C124.9,38.3,124.6,38.6,124.4,38.9z"/>
	<path class="st0" d="M131.3,31.8h-4v0.4c1.1,0.1,1.2,0.2,1.2,1.5v4.2c0,1.3-0.1,1.4-1.3,1.5v0.4h4.1v-0.4c-1.3-0.1-1.4-0.2-1.4-1.5
		v-1.5l1,0.2c0.2,0,0.4,0,0.7,0c1.5-0.2,2.7-1,2.7-2.5C134.3,32.5,133.1,31.8,131.3,31.8z M130.9,36.1c-0.4,0-0.8-0.1-1-0.2v-3
		c0-0.6,0-0.6,0.9-0.6c1.1,0,1.9,0.6,1.9,1.8C132.8,35.7,131.6,36.1,130.9,36.1z"/>
	<path class="st0" d="M142.1,32.2c0.9,0.1,1.3,0.2,1.4,0.7c0.1,0.4,0.1,1,0.1,2.3V36c0,1.9-0.6,3.3-2.4,3.3c-1.6,0-2.3-1.2-2.3-3.1
		v-2.4c0-1.3,0.1-1.4,1.2-1.5v-0.4h-3.9v0.4c1.2,0.1,1.3,0.2,1.3,1.5v2.8c0,1.4,0.3,2.3,1,2.8c0.6,0.5,1.5,0.7,2.3,0.7
		c1,0,1.9-0.3,2.5-0.9c0.7-0.7,1-1.8,1-2.8v-1.1c0-1.3,0.1-1.9,0.1-2.3c0.1-0.4,0.4-0.6,1.2-0.7v-0.4h-3.4V32.2z"/>
	<path class="st0" d="M142.5,28.1c-0.2-0.1-0.4-0.2-0.6,0.1l-2.1,2.8l0.3,0.2l2.6-2.3c0.3-0.3,0.3-0.5,0-0.7L142.5,28.1z"/>
	<path class="st0" d="M152.2,35.4L152.2,35.4c0.7-0.2,1.8-0.7,1.8-1.8c0-0.7-0.3-1.1-0.7-1.4c-0.5-0.3-1.1-0.4-1.9-0.4h-4.1v0.4
		c1.1,0.1,1.2,0.2,1.2,1.5v4.2c0,1.3-0.1,1.4-1.3,1.5v0.4h3.6c0.9,0,1.8-0.1,2.4-0.4c0.7-0.3,1.3-1,1.3-1.9
		C154.5,36.2,153.4,35.6,152.2,35.4z M149.8,32.8c0-0.4,0-0.5,0.9-0.5c0.9,0,1.7,0.4,1.7,1.5c0,1.1-0.8,1.5-1.6,1.5h-1L149.8,32.8
		L149.8,32.8z M151.1,39.3c-0.9,0-1.2-0.2-1.2-1.3v-2.2h0.9c1.1,0,2.1,0.5,2.1,1.8C152.9,38.8,152.1,39.3,151.1,39.3z"/>
	<path class="st0" d="M162.5,38.8c-0.3,0.3-0.9,0.4-1.6,0.4c-0.7,0-1,0-1.3-0.1c-0.2-0.1-0.3-0.5-0.3-1.2v-4.2
		c0-1.3,0.1-1.4,1.3-1.5v-0.4h-4v0.4c1.1,0.1,1.3,0.1,1.3,1.5v4.2c0,1.3-0.1,1.4-1.3,1.5v0.4h6.5c0.1-0.3,0.4-1.7,0.5-2.1l-0.5-0.1
		C162.9,38.2,162.7,38.6,162.5,38.8z"/>
	<path class="st0" d="M165,32.2c1.1,0.1,1.3,0.2,1.3,1.5v4.2c0,1.3-0.1,1.4-1.3,1.5v0.4h3.9v-0.4c-1.1-0.1-1.3-0.2-1.3-1.5v-4.2
		c0-1.3,0.1-1.4,1.3-1.5v-0.4H165V32.2z"/>
	<path class="st0" d="M175.7,39.5c-1.9,0-3.2-1.5-3.2-3.8c0-2,1.1-3.5,3.1-3.5c1.2,0,2.1,0.4,2.5,2l0.4-0.1
		c-0.1-0.8-0.1-1.5-0.2-2.1c-0.4-0.1-1.3-0.3-2.5-0.3c-2.7,0-4.9,1.7-4.9,4.3c0,2,1.5,4.1,4.7,4.1c1,0,2.2-0.2,2.5-0.3
		c0.2-0.5,0.5-1.6,0.7-2.2l-0.4-0.1C177.7,38.8,177,39.5,175.7,39.5z"/>
	<path class="st0" d="M187.4,38.2l-2.7-6.6l-0.5,0.1l-2.7,6.3c-0.5,1.2-0.8,1.3-1.6,1.4v0.4h3.1v-0.4l-0.4,0c-0.5,0-0.7-0.2-0.5-0.8
		c0.2-0.5,0.5-1.4,0.6-1.7h2.5l0.6,1.5c0.4,0.8,0.2,1-0.3,1l-0.3,0v0.4h3.6v-0.4C188.2,39.3,187.8,39.3,187.4,38.2z M183.1,36.2
		l1-2.7h0l1,2.7H183.1z"/>
	<path class="st0" d="M201.9,38.2l-2.7-6.6l-0.4,0.1l-2.7,6.3c-0.5,1.2-0.8,1.3-1.6,1.4v0.4h3.1v-0.4l-0.4,0c-0.5,0-0.7-0.2-0.5-0.8
		c0.2-0.5,0.5-1.4,0.6-1.7h2.5l0.6,1.5c0.4,0.8,0.2,1-0.3,1l-0.3,0v0.4h3.6v-0.4C202.7,39.3,202.4,39.3,201.9,38.2z M197.6,36.2
		l1-2.7h0l1,2.7H197.6z"/>
	<path class="st0" d="M211.3,37.7c-0.4-0.5-1-1.4-1.2-1.8c1-0.4,1.7-1,1.7-2.1c0-0.8-0.4-1.3-0.9-1.7c-0.5-0.3-1.2-0.4-2-0.4h-3.9
		v0.4c1.1,0.1,1.2,0.2,1.2,1.5v4.2c0,1.3-0.1,1.4-1.3,1.5v0.4h3.9v-0.4c-1.1-0.1-1.3-0.2-1.3-1.5v-1.5h0.5c0.5,0,0.6,0.1,0.9,0.5
		c0.3,0.5,0.8,1.4,1.2,2c0.5,0.7,1.1,1.1,2.6,1.1h0.3l0.1-0.4c-0.4-0.1-0.7-0.3-0.9-0.5C212.1,38.7,211.7,38.3,211.3,37.7z
		 M209.7,35.6c-0.4,0.2-0.8,0.3-1.2,0.3h-0.8v-3c0-0.5,0-0.5,0.8-0.5c1,0,1.8,0.5,1.8,1.7C210.4,34.6,210.2,35.3,209.7,35.6z"/>
	<path class="st0" d="M219.2,36.4c1.5,0.1,1.6,0.2,1.6,1v1.3c0,0.7-0.7,0.8-1.3,0.8c-2.4,0-3.4-1.9-3.4-3.8c0-2.2,1.3-3.5,3.1-3.5
		c1.2,0,2.2,0.4,2.6,2l0.4,0c-0.1-1.1-0.2-1.8-0.2-2.2c-0.4-0.1-1.4-0.3-2.5-0.3c-2.6,0-5,1.5-5,4.3c0,2.4,2,4.1,4.9,4.1
		c1,0,2-0.3,2.9-0.5c-0.1-0.3-0.1-0.7-0.1-1.1v-1c0-0.9,0.1-0.9,0.8-1V36h-3.8V36.4L219.2,36.4z"/>
	<path class="st0" d="M230.8,38.9c-0.3,0.3-0.9,0.4-1.6,0.4c-0.8,0-1.2,0-1.4-0.1c-0.2-0.1-0.3-0.5-0.3-1.2v-2h1.4
		c1.1,0,1.2,0.1,1.3,1h0.4v-2.6h-0.4c-0.1,0.9-0.2,1-1.3,1h-1.4v-2.5c0-0.4,0-0.4,0.5-0.4h1c0.9,0,1.3,0.2,1.4,0.4s0.3,0.5,0.4,1.2
		l0.4,0c-0.1-0.8-0.1-1.7-0.1-2h-6.3v0.4c1.1,0.1,1.2,0.2,1.2,1.5v4.2c0,1.3-0.1,1.4-1.3,1.5v0.4h6.8c0.1-0.3,0.4-1.6,0.5-2.1
		l-0.5-0.1C231.2,38.3,231,38.6,230.8,38.9z"/>
	<path class="st0" d="M239.4,32.2c0.9,0.1,1.3,0.2,1.4,0.7c0.1,0.4,0.1,1,0.1,2.3v2.5h0l-5.3-5.9h-2.2v0.4c1.2,0.1,1.5,0.4,1.5,1.8
		v2.4c0,1.3-0.1,1.9-0.1,2.3c-0.1,0.4-0.4,0.6-1.2,0.7v0.4h3.4v-0.4c-0.9-0.1-1.3-0.2-1.3-0.7c-0.1-0.4-0.1-1-0.1-2.3v-2.6h0
		l5.5,6.1h0.6v-4.7c0-1.3,0.1-1.9,0.1-2.3c0.1-0.4,0.4-0.6,1.2-0.7v-0.4h-3.4V32.2L239.4,32.2z"/>
	<path class="st0" d="M251.6,31.5c-0.2,0.2-0.3,0.3-0.6,0.3h-5.6c-0.3,0-0.5,0-0.7-0.3h-0.2c0,0.6-0.1,1.5-0.2,2.4h0.4
		c0.2-0.7,0.3-1,0.5-1.2c0.2-0.2,0.6-0.4,1.6-0.4h0.6v5.6c0,1.3-0.1,1.4-1.3,1.5v0.4h4.1v-0.4c-1.3-0.1-1.4-0.2-1.4-1.5v-5.6h0.8
		c0.8,0,1.2,0.1,1.4,0.3c0.2,0.2,0.3,0.5,0.5,1.3l0.4,0c-0.1-0.8-0.1-1.9-0.2-2.4H251.6L251.6,31.5z"/>
	<path class="st0" d="M253.8,32.2c1.1,0.1,1.3,0.2,1.3,1.5v4.2c0,1.3-0.1,1.4-1.3,1.5v0.4h3.9v-0.4c-1.1-0.1-1.3-0.2-1.3-1.5v-4.2
		c0-1.3,0.1-1.4,1.3-1.5v-0.4h-3.9V32.2z"/>
	<path class="st0" d="M265.6,32.2c0.9,0.1,1.3,0.2,1.4,0.7c0.1,0.4,0.1,1,0.1,2.3v2.5h0l-5.3-5.9h-2.2v0.4c1.2,0.1,1.5,0.4,1.5,1.8
		v2.4c0,1.3-0.1,1.9-0.1,2.3c-0.1,0.4-0.4,0.6-1.2,0.7v0.4h3.4v-0.4c-0.9-0.1-1.3-0.2-1.3-0.7c-0.1-0.4-0.1-1-0.1-2.3v-2.6h0
		l5.5,6.1h0.6v-4.7c0-1.3,0.1-1.9,0.1-2.3c0.1-0.4,0.4-0.6,1.2-0.7v-0.4h-3.4V32.2z"/>
	<path class="st0" d="M277.1,38.2l-2.7-6.6l-0.4,0.1l-2.7,6.3c-0.5,1.2-0.8,1.3-1.6,1.4v0.4h3.1v-0.4l-0.4,0c-0.5,0-0.7-0.2-0.5-0.8
		c0.2-0.5,0.5-1.4,0.6-1.7h2.5l0.6,1.5c0.4,0.8,0.2,1-0.3,1l-0.3,0v0.4h3.6v-0.4C277.9,39.3,277.6,39.3,277.1,38.2z M272.8,36.2
		l1-2.7h0l1,2.7H272.8z"/>
	<path class="st0" d="M28.3,0C12.7,0,0,12.7,0,28.3C0,44,12.7,56.7,28.3,56.7C44,56.7,56.7,44,56.7,28.3C56.7,12.7,44,0,28.3,0z
		 M28.3,56C13.1,56,0.7,43.6,0.7,28.3c0-15.3,12.4-27.7,27.7-27.7S56,13.1,56,28.3C56,43.6,43.6,56,28.3,56z"/>
	<path class="st0" d="M28.3,1.5c-14.8,0-26.9,12-26.9,26.9c0,14.8,12,26.9,26.9,26.9c14.8,0,26.9-12,26.9-26.9
		C55.2,13.5,43.2,1.5,28.3,1.5z M50.8,41.8c-0.2,0.3-0.4,0.4-0.7,0.4c-0.8,0-0.7-1.5-1.5-1.5c-1,0-0.7,1.4-1.4,1.4
		c-0.8,0-0.5-0.9-1.4-0.9c-0.4,0-1.4,0.6-2.3,0.6c-0.5,0-0.7-0.2-0.7-0.9c0-0.7-0.7-1-1.3-1c-0.7,0-2.1,0-2.9,0
		c-1.7,0-2.5-1-2.7-0.9c-0.5,0.5,0.8,1.5,2.2,2.1c1.3,0.6,1.7,1.6,2,1.6c0.2,0,0.3-0.2,0.3-0.4c0-0.2-0.1-0.6-0.5-1
		c0-0.2,0.1-0.2,0.2-0.2c1.3,0,1.1,1.7,3.2,1.7c0.8,0,1.6-0.4,1.9-0.4c1.1,0,0.9,2.2,2,2.2c0.3,0,0.4-0.2,0.4-0.6
		c0-0.7-0.1-1.4,0.3-1.4c0.4,0,0.8,0.7,1.9,0.7c-0.6,0.8-1.2,1.6-1.9,2.4c-0.4,0.4-0.7,0.6-1.3,0.6c-1.8,0-1.5-1.5-2.8-1.5
		c-0.7,0-1.3,0.1-1.6,0.4c-0.2,0.2,0.1,0.5,0.3,0.5c1.3,0,0.9,1.9,2,1.9c0.7,0,1-0.6,1-0.2c0,0.4-0.3,1.3-1.5,1.3
		c-1.6,0-0.9-1.2-3.3-1.2c-0.9,0-1.7-0.8-1.7-1.7c0-0.4,0.6,0,1.7,0c0.6,0,1-0.1,1-0.4c0-0.3-0.5-0.4-1-0.4c-2.2,0-1.8-1.5-3.5-2.6
		c-0.8-0.5-1.5-1.1-2-1.8c-0.4-0.6-0.7-1.2-0.7-1.8c-0.1-1.2-0.7-2.5-1.9-2.5c-0.4,0-0.4,0.4-0.4,1.1c0,1.1-0.7,1.5-0.4,1.8
		c0.3,0.3,0.8-0.5,1.2-0.5c0.7,0,0.3,1.3,1.8,2.7c1.7,1.7,3.2,1.5,3.2,4.5c0,0.6-0.2,1.1-0.6,1.1c-0.7,0-0.5-1.3-0.5-2.1
		c0-0.5-0.4-1.2-1.2-1.5c-0.1-0.1-0.5-0.2-0.5,0.2c0,0.4,1,0.6,1,1.3c0,0.7-0.3,1.5-0.3,2.1c0.1,2,3.7,0.9,3.7,2.8
		c0,0.5,0.3,1.2,0.9,1.6c-3.6,1.9-7.7,3-12.1,3c-1.9,0-3.8-0.2-5.6-0.6c0,0,1.2-0.7,1.2-2.3c0-1.5-0.3-3.9-0.3-5.4
		c0-1.6,0.3-2.7,1.3-3.5c0.6-0.5,2.6-2.2,3.4-3c0.4-0.3,0.7-0.7,0.7-1c0-0.1-0.2-0.1-0.3-0.1c-2.5,2.1-5.7,3.8-8.8,3.8
		c-1.9,0-4.6-0.6-4.6-2.5c0-1,0.9-1.3,0.9-2.2c0-0.4-0.3-0.6-0.7-0.6c-0.5,0-1,0-1-0.4c0-0.4,0.3-0.5,0.8-0.5c1.4,0,1.4,0.5,2.1,0.5
		c0.2,0,0.3-0.2,0.2-0.3c0-0.4-0.6-0.6-1.1-0.7c-0.4,0-1.2-0.9-2-1.2c0.3-0.4,0.5-1.1,0.1-1.5c0.5,0,0.5,0.3,1,0.3
		c0.8,0,1.2-0.5,1.2-1.3c0-0.6-0.4-1.2-1-1.3c-0.1,0-0.3,0-0.3,0.1c0,0.2,0,0.1,0.3,0.3c0.3,0.3,0.3,0.6,0.3,0.9
		c0,0.3-0.2,0.5-0.6,0.5c-0.4,0-0.9-0.6-1.6-0.6c-0.3,0-0.6,0.3-0.7,0.6c-0.7-0.3-1.4-0.4-1.4-0.9c0-0.5,0.4-1,0.8-2.1
		c0.8-2.2,2-4.3,2-5.2c0-0.4-0.2-0.4-0.2-0.8c0-0.3,0.5-1.7,1-2.2c0.3-0.3,1.2-0.5,2,0.4c0.8,0.8,1.7,0.9,2.1,1.3
		c0.3,0.3,1,1.6,1.5,1.6c0.2,0,0.3,0,0.3-0.1c0-0.1-0.3-0.2-0.6-0.6c-0.4-0.5-0.8-1.7-1.5-1.7c-0.8,0-1.4-1.7-2.1-1.7
		c-1.2,0-1.8-0.9-1.8-1.5c0-0.5,0.4-0.7,0.6-0.7c0.2,0,0.2,0.2,0.2,0.4c0,0.4,0,0.4,0.3,0.7c0.2,0.2,0.9,0.4,1.2,0.6
		c0.3,0.2,0.5,0.5,0.6,0.7c0.2,0.2,0.4,0,0.5,0.1c0.2,0.2,0.3,0.5,0.5,0.7c0.3,0.3,0.8,0.3,1.2,0.7c0.5,0.5,0.3,1.3,1,2
		c0.3,0.3,0.5,0.5,0.8,0.7c0.3,0.2,0.4,0.7,0.6,0.9c0.5,0.4,0.8,0.4,1,0.2c0.1-0.1-0.3-0.2-0.6-0.5c-0.2-0.2-0.2-0.5-0.4-0.8
		c-0.3-0.3-0.6-0.6-0.9-1c-0.5-0.7-0.5-1.4-1-2c-0.4-0.4-0.9-0.5-1.3-0.8c-0.3-0.4-0.2-0.6-0.5-0.9c-0.3-0.3-2.3-0.8-1.6-1.4
		c0.4-0.4,1,0.5,1.2,0.2c0.2-0.2,0-0.2,0.2-0.4c0.1-0.1,0.6,0.2,0.8,0.2c0.2,0,0.3-0.2,0.3-0.2c0-0.7-1.7-1.1-2.2-1.1
		c-0.2,0-0.3-0.2-0.3-0.4c0-0.5-0.5-1.4-0.5-1.7c0-0.3,0.5-0.5,0.5-0.7c0-0.2-0.2-0.2-0.4-0.1c-0.2,0.1-0.8,0.4-0.8,0.8
		c0,0.7,0.5,0.8,0.5,1.7c0,0.5-0.8,0.5-1.3,0.7c-0.6,0.2-1.2,0.6-1.2,1.3c0,0.8,0.8,0.8,0.6,1.1c-0.2,0.2-1.4-0.3-1.4-1.3
		c0-1.2,1.3-1.5,1.3-1.7c0-0.2-1-0.6-1-1.6c0-1,1.2-1,1.2-2.7c0.1,0,0.6,0.5,0.6,0.8c0,0.8-0.9,1.2-0.9,2c0,0.7,0.8,1.1,1.1,1.1
		c0.2,0,0.3,0,0.3-0.3c0-0.4-0.6-0.5-0.6-1.2c0-1,2.4-1.6,2.4-2.5c0-0.8-0.9-0.8-0.9-1.4c0-0.7,0.8-0.5,0.8-0.5s-0.1,0.2-0.1,0.5
		c0,0.5,1,0.7,1,1.4c0,0.4-0.6,0.9-0.4,1.1c0.2,0.2,1-0.7,1.3-0.4c0.3,0.3-1.8,1.2-1.8,2c0,0.3,0.3,1.2,0.5,1.2
		c0.2,0,0.3-0.1,0.2-0.4c0-0.2-0.1-0.3-0.1-0.8c0-0.6,1.9-1.1,1.9-2.1c0-0.8-2-1.6-2-2.2c0-0.5,0.1-1,0.8-1.1c0.3,0,0.4,0,0.4,0.2
		c0,0.3-0.4,0.4-0.4,1c0,0.7,2,1,2,2.1c0,0.4,0.3,0.5,0.7,0.6c1.2,0.3,3.3,0.6,3.4,0.6c0.1,0,0.2-0.1,0.2-0.2c0-0.1-0.1-0.3-0.5-0.4
		c-1-0.2-3-0.5-3-0.7c0-0.2,0.7-0.6,2.2-1.2c1.7-0.7,4-1.6,5.9-1.6c2.3,0,7.8,2.2,7.8,2.5c0,0.4,0.7,0.7,0.8,0.8
		c0.7,0.7,1.4,2.2,1.8,3.2c0.1,0.3,0.4,0.4,0.4,0.4c0.3,0,0.2-0.4,0.2-0.4c0-0.8-1.5-3-1.5-3.2c0-0.2,0.2-0.3,0.2-0.5
		c0-0.2-0.1-0.4-0.4-0.5c-2.5-1.2-6.1-2.2-6.1-2.6c0-0.2,1.4-0.2,1.4-0.9c0-0.4-2.9,0.5-4.5,0.5c-1.5,0-3.8,0.5-3.8-1.1
		s2.3-2.1,4-2.1c4.6,0,8.7,1.5,11.2,4.1c2.1,2.1,3.7,8,3.7,10.4c0,2.6-0.7,5-0.9,6.7c-0.1,1,0.5,1.7,1.4,1.7c1,0,0.9-0.4,1.8-0.4
		c0.5,0,0.8,0.3,0.8,0.8c0,1,0.3,1.7,1.2,1.7c0.4,0,1-0.4,1-1.1c0-0.4-0.2-0.9-0.6-0.9c-0.4,0,0.3,1.3-0.5,1.3
		c-0.5,0-0.4-0.4-0.4-0.9c0-0.9-0.8-1.5-1.6-1.5c-0.9,0-1.2,0.4-1.7,0.3c-0.3,0-0.7-0.3-0.7-0.9c0-1.2,0.8-3.1,0.8-6.7
		c0-2.9-1.7-8.6-3.7-10.8c-2.6-2.8-7-4.5-11.9-4.5c-2.3,0-4.8,0.6-4.8,2.8c0,0.6,0.3,1.1,0.7,1.5c0.1,0.1,0.2,0.4-0.1,0.5
		c-1.1,0.3-3.3,1.2-4.3,1.8c-0.3-0.3-1.7-1-1.7-1.1c0-0.2,0.3-0.5,0.3-1.1c0-0.6-0.3-1.3-0.8-1.3c-0.1,0-0.2,0.1-0.2,0.2
		c0,0.1,0.1,0.2,0.1,0.3c0,0.1-0.1,0.1-0.2,0.1c-0.2,0-0.7,0.3-1.2,0.9c-0.2,0-0.7-0.1-1,0.1c-0.4,0.2-0.6,0.6-0.6,1.1
		c0,0.6,0.9,0.8,0.9,1.3c0,0.3-0.9,0.7-0.9,0.7c-0.2-0.4-0.6-1.7-2.3-1.6c-0.1,0-0.2,0.1-0.2,0.2c0,0.4,0.5,0.7,0.5,1.2
		c0,0.6-1.2,1-1.2,2.2c0,0.7,0.4,1.1,0.8,1.5c-0.6,0.2-1,1-1,1.7c0,1.1,0.7,1.6,1.2,2c0.5,0.3,0.7,0.7,0.5,1.1
		c-0.2,0.7-0.6,1.6-0.6,2.1c0,0.3,0.2,0.5,0.2,0.8c0,0.7-0.4,1-0.8,2.2c-0.8,2-0.8,2.5-1.9,4.7c-0.2,0.4-0.1,1,0.2,1.2
		c0.3,0.2,1.4,0.8,1.8,0.8c0.1,0,0.2,0,0.4,0c0.5,0,0.7,0.8,0.2,1.2c-0.2,0.1-0.3,0.4-0.3,0.5c0,0.5,0.4,0.7,0.4,0.9
		c0,0.2-0.1,0.4-0.1,0.7c0,1.2,1.3,1,1.3,1.4c0,0.5-0.6,0.8-0.6,1.8c0,2.9,3.2,3.3,5.6,3.5c1.9,0.2,2,0.5,2.1,2.3
		c0.1,2.3,0.8,4,0.8,5.9c0,0.5-0.2,1.2-0.5,1.5c-0.4,0.4-0.9,0.5-1.4,0.4C10,50.3,2.1,40.2,2.1,28.3c0-14.5,11.7-26.2,26.2-26.2
		c14.5,0,26.2,11.7,26.2,26.2C54.5,33.3,53.2,37.9,50.8,41.8z"/>
	<path class="st0" d="M50.6,33.5c0-1.1-1.3-1.3-1.3-1.3c-0.5-0.1-0.9,0.1-0.3,0.5c0.3,0.2,0.8,0.4,0.8,0.8c0,0.5-0.5,0.6-1,0.8
		c-0.2,0.1-0.4,0.2-0.4,0.5c0,0.3,0.5,0.4,1.6,0.6c0.6,0.1,1.2,0.3,1.2,0.8c0,0.4-0.3,0.8-0.1,0.8c0.3,0,0.8-0.3,0.8-0.8
		c0-1-0.8-1.3-2.2-1.5C49.6,34.7,50.6,34.5,50.6,33.5z"/>
	<path class="st0" d="M21.8,16.2c0.5,0,0.8-0.7,1.3-0.7c0.7,0,0.9,0.5,1.5,0.5c1.6,0,2.2-0.7,3.5-0.7c1.7,0,1.8,1.9,3.3,1.9
		c0.5,0,1.9-0.2,2.3-0.2c1.3,0,1.5,1.2,2.7,1.2c0.5,0,1.1-0.3,1.1-0.7c0-0.1-0.4,0-1.2,0c-1,0-1-1.2-2.6-1.2c-0.3,0-1.5,0.2-1.9,0.2
		c-1.4,0-1.3-2.2-3.7-2.2c-1.2,0-2,0.8-3.5,0.8c-0.5,0-0.7-0.5-1.5-0.5c-0.5,0-0.9,0.7-1.3,0.7c-0.5,0-0.5-0.5-1.5-0.5
		c-0.5,0-1.2,0.5-1.2,1c0,0.4,0,1,0.4,1c0.3,0,0.3-0.2,0.3-0.4c0-0.2-0.1-0.3-0.1-0.6c0-0.2,0.3-0.4,0.5-0.4
		C20.7,15.6,20.8,16.2,21.8,16.2z"/>
	<path class="st0" d="M27.4,19c0.7,0,1.4,0.5,2,0.8c0.6,0.3,1.3,0.6,1.8,0.6c2.2,0,3.3,4.4,5.7,4.4c0.1,0,0.3,0,0.3-0.2
		c0-0.2-0.4-0.4-1-0.7c-0.4-0.2-0.6-0.5-0.6-0.7c0-0.3,0.2-0.2,0.4-0.2c0.5,0,0.7,0,0.7-0.3c0-0.2-0.2-0.2-0.7-0.4
		c-0.9-0.2-1.2-1.5-2.3-2c-0.1,0-0.4-0.2-0.4-0.3c0-0.2,1.9-0.2,3.1-0.2c2.4,0,2.1,4.4,5.2,4.4c1.2,0,2.2,1.3,2.2,0.9
		c0-0.5-0.9-1.5-2.2-1.5c-2,0-2.3-4.6-5.2-4.6c-1.4,0-4.1,0.4-5.2,0.4c-1,0-3.4-1-3.4-1.3c0-0.2,0.7-0.1,0.9-0.2
		c0.1-0.1,0-0.3-0.2-0.5c-0.2-0.1-0.5-0.3-0.9-0.3c-0.7,0-1.3,0.6-1.8,1c-0.6,0.5-1.3,1.1-2.4,1.1c-0.9,0-1.3-0.1-2-0.2
		c-0.2,0-0.4-0.2-0.5-0.1c-0.2,0.2-0.1,0.5,0.4,0.7c0.5,0.2,1.1,0.4,2.2,0.4C24.8,20,25.9,19,27.4,19z"/>
	<path class="st0" d="M43.4,31.7c-0.4-0.9-0.8-2-1.3-2.9c-0.7-1.3-1.7-2.1-2.8-2.1c-0.2,0-0.8,0-0.8,0.3c0,0.4,1.2-0.4,2.8,2
		c0.6,0.9,0.9,2.6,1.2,3.4c0.2,0.6,0.5,1,0.3,1.2c-0.3,0.3-0.7-0.1-0.9-0.7c-0.3-0.7-1-1.6-1.4-1.6c-0.2,0-0.4,0-0.4,0.2
		c0,0.4,0.7,0.7,0.5,1c-0.2,0.2-0.5-0.3-1.7-0.9c-0.7-0.4-1.4-0.5-1.9-0.6c-0.2,0-0.4,0-0.4,0.2c0,0.2,0.2,0.3,0.4,0.3
		c0.5,0.1,1.9,1,2.3,1.5c2,2.2,5.2,3.5,8,4.1c0.8,0.1,1-0.3,1-0.4c0-0.2-0.1-0.2-0.6-0.4c-1.2-0.4-2.6-1.4-2.1-1.8
		c0.3-0.3,1.4,0,1.7-0.3c0.1-0.1-0.2-0.6-0.7-1.1c-0.2-0.2-0.8-0.5-1.4-0.5C44.5,32.7,43.7,32.5,43.4,31.7z"/>
	<path class="st0" d="M32.8,28.2c0.8,0.4,2.9,0.5,4,0.6c0.4,0,0.7,0.1,0.9,0.1c0.2,0.1,0.5,0.2,0.8,0.3c0.3,0.1,0.6,0.1,0.6-0.2
		c0-0.4-0.6-0.8-1.2-1c-0.3-0.1-0.6-0.1-1-0.1c-1-0.1-2.8-0.1-3.6-0.6c-0.6-0.4-1-0.9-1.2-1.3c-0.1-0.2-0.4-0.5-0.7-0.2
		C30.8,26.3,32,27.8,32.8,28.2z"/>
	<path class="st0" d="M36.4,27.1c0.6,0,1.4-0.3,1.4-0.6c0-0.2-0.2-0.2-0.3-0.2c-0.2,0-0.7,0.1-1.1,0.1c-3.1,0-3.6-5.7-7.8-5.7
		c-0.1,0-0.4,0-0.5-0.1l0,0l0,0c-0.1-0.2-0.2-0.3-0.8-0.3c-0.4,0-1,0.2-1.4,0.4c-0.2,0.1-0.8,0.4-1.1,0.4c-0.2,0-0.4,0-0.5,0
		c-0.1,0-0.2,0.1-0.2,0.2c0,0.3,0.8,0.6,1.3,0.6c0.3,0,0.7-0.1,1-0.2c0.4-0.1,0.9-0.2,1.7-0.2C32.3,21.3,32.5,27.1,36.4,27.1z"/>
	<path class="st0" d="M50.3,37.5c-1.2,0-1.4,1-2.9,1c-2.2,0-2.7-0.8-5.2-0.8c-1,0-1.7,0.6-3.2,0.6c-1,0-3.2-0.9-3.2-1.9
		c0-0.1,0.2-0.2,0.3-0.1c0.8,0.5,0.9,0.6,1.2,0.6c0.2,0,0.4-0.1,0.4-0.3c0-0.1-0.8-0.6-1.3-1c-1-0.7-2.6-1.5-2.6-2.1
		c0-0.2,0.2-0.2,0.4-0.2c0.6,0,1.8,0.5,2.2,0.5c0.2,0,0.3,0,0.3-0.3c0-0.3-1.2-0.8-2.4-1.1c-0.6-0.1-1.1-0.3-1.5-0.4
		c-0.3-0.1-0.4-0.2-0.4-0.5c0-0.2,0.2-0.3,0.4-0.3c1,0,1.5,0,2.4,0c0.5,0,0.8,0,0.8-0.2c0-0.3-0.8-0.6-1.6-0.6c-1.8,0-3.2,0.1-4.3-1
		c-1.2-1.2-1.4-3.8-2.4-4.7c-1-1-1.9-0.8-1.9-1.2c0-0.3,0.8-0.3,1.2-0.3c0.7,0,1.1,0.5,1.4,0.5c0.2,0,0.2-0.3,0.2-0.3
		c0-0.5-1.1-1-1.7-1c-0.7,0-2.3,0.2-2.8,0.2c-0.9,0-1.1-0.7-1.5-0.7c-0.2,0-0.3,0.1-0.3,0.3c0,0.5,0.9,1.2,1.8,1.7
		c0.6,0.3,2.4,0.9,2.9,1.3c0.5,0.5,0.2,0.7-0.1,0.7c-0.3,0-0.5-0.2-1-0.2c-0.2,0-0.3,0.1-0.3,0.3c0,0.7,2.6,1.8,2.6,3.9
		c0,1.3-0.7,2.1-0.7,3.2c0,0.9,0.5,1.3,0.5,1.3c0.3,0.2,0.5,0.1,0.5-0.2c0-0.2-0.3-0.3-0.3-1.1c0-0.8,0.6-2.1,0.6-2.1
		c0.1-0.3,0.1-0.7,0.4-0.7c0.7,0,0.6,1.5,1.2,1.5c0.3,0,0.8-0.2,0.8,0.1c0,0.5-1.6,1-1.2,1.4c0.3,0.3,1.3-0.6,1.5-0.6
		c0.3,0,0.4,0.3,0.1,0.5c-0.2,0.2-1.3,1.3-1.3,1.7c0,0.3,0.8,0.8,1.2,0.8c0.4,0,0.5-0.4,0.9-0.4c1.3,0,2.9,2.3,4,2.9
		c0.9,0.5,1.6,0.7,2.5,0.7c0.9,0,1.7-0.4,2.5-0.4c1.1,0,2.3,1,3.3,1c0.5,0,0.3-0.9,0.9-0.9c0.6,0,1.2,0.9,1.9,0.9
		c0.7,0,2.1-1.3,2.9-1.3c0.7,0,0.8,0.5,0.8,1.1c0,0.2,0.7,0,0.7-0.7C51.8,38.1,51.3,37.5,50.3,37.5z"/>
	<path class="st0" d="M21.8,18.1c0.5,0,1.2,0.3,1.5,0.3c0.3,0,1.2-0.3,1.2-0.5c0-0.3-0.8-0.1-1.3-0.3c-0.5-0.3-0.8-0.5-1.4-0.5
		c-0.3,0-0.7,0-0.9,0.2c-0.2,0.2-0.6,0.1-0.6,0.3c0,0.3,0.5,0.5,0.9,0.5C21.5,18.1,21.4,18.1,21.8,18.1z"/>
	<path class="st0" d="M37.2,33.8c-0.4,0.4,1.6,1.6,1.6,1.9c0,0.7,0.5,1.1,1.2,1.1c0.2,0,0.4-0.1,0.4-0.3
		C40.3,35.7,37.5,33.5,37.2,33.8z"/>
	<path class="st0" d="M24.6,26.7c-0.2-0.2-0.3,0-0.3,0.2c0,0.1,0,0.2,0.1,0.3c0.4,0.4,1,1.4,1,2.9c0,0.8-0.8,2.2-0.8,3.2
		c0,1.7,1.4,2,1.6,1.8c0.2-0.2-1-0.7-1-1.8c0-1.1,0.8-2.4,0.8-3.2c0-0.3,0-0.6-0.1-1c0-0.2,0.2-0.3,0.3-0.2c0.3,0.4,0.5,0.7,0.5,1.2
		c0,1.1-0.5,1.7-0.5,2.1c0,0.2,0,0.2,0.1,0.2c0.2,0,1.1-1.1,1.1-2.3C27.3,28.7,25.7,27.7,24.6,26.7z"/>
	<path class="st0" d="M20.5,26.4c-0.9-0.5-4-1.4-4-1.6c0-0.3,0.3-0.3,0.9-0.3c0.2,0,0.5,0,0.5-0.1c0-0.2-1.1-0.7-1.7-0.7
		c-0.7,0-0.8,0.4-0.8,0.8c0,0.7,0.4,1.5,0.8,1.9c0.2,0.2,0.1,1.5,0.6,1.5c0.4,0,0.7-0.2,0.7-0.9c0-0.2,2,0.2,2,0.4
		c0,0.1-0.2,0.2-0.2,0.3c0,0.2,0,0.2,0.3,0.2c0.5,0,1.6-0.3,1.6-0.8C21.1,26.7,20.9,26.6,20.5,26.4z M16.5,25.7c0-0.2,0.4-0.1,0.9,0
		c0.7,0.2,1,0.3,1.3,0.4c0.3,0.1,0.7,0.2,0.7,0.5C19.4,26.9,16.5,26,16.5,25.7z"/>
	<path class="st0" d="M16.5,28.2c-0.2,0.2-0.1,0.4-0.1,0.9c0,0.2,0.1,0.2,0.5-0.1c0.9-0.6,1.1-0.6,0.9-0.8
		C17.7,28.1,16.7,28.1,16.5,28.2z"/>
	<path class="st0" d="M31.1,42.4c0-0.9,0.5-1.7,0.3-1.7c-0.5,0-1,0.9-1,1.6c0,1.1,0.4,1.5,0.8,1.8c0.9,0.9,2,0.5,2.5,1.1
		c0.6,0.6,0.2,1.5,0.2,2.2c0,1.9,1.2,2.7,2.5,3.2c1,0.4,0.7,1.7,1,1.7c0.6,0,1-0.5,1-1.1c0-0.5-0.3-1-1-1.3c-1-0.4-2.7-0.5-2.7-2.4
		c0-0.7,0.3-1.5,0.3-2.1c0-0.9-0.6-1.2-1.8-1.2C31.8,44,31.1,43.4,31.1,42.4z"/>
</g>
</svg>
