<svg width="1839" height="930" viewBox="0 0 1839 930" fill="none" xmlns="http://www.w3.org/2000/svg">
  <g clip-path="url(#clip0)">
    <rect width="1839" height="930" fill="#0B0E11"/>
    <path opacity="0.2" d="M991.005 506V596.046L135 708.482V618.598L991.005 506Z" fill="#474D57"/>
    <path opacity="0.2" d="M1388.29 -24V66.0461L84.0002 237.377V147.493L1388.29 -24Z" fill="#474D57"/>
    <path opacity="0.2" d="M501.595 319.58V409.626L0.582031 480.365V390.481L501.595 319.58Z" fill="#474D57"/>
    <path opacity="0.2" d="M1748.77 410V499.884L1410 542.716V452.67L1748.77 410Z" fill="#474D57"/>
    <path opacity="0.2" d="M1635.38 192V279.612L1466 300.866V213.416L1635.38 192Z" fill="#474D57"/>
    <path opacity="0.3" d="M1025.18 826.983V737.099L205.679 839.801V929.847L1025.18 826.983Z" fill="#474D57"/>
    <g opacity="0.2">
      <path d="M1605 389.954L1616.53 399.179L1625.88 387.498L1614.35 378.273L1605 389.954Z" fill="#5E6673"/>
      <path d="M1535.99 398.41L1547.52 407.635L1556.87 395.953L1545.34 386.728L1535.99 398.41Z" fill="#5E6673"/>
      <path d="M1467.14 406.847L1478.67 416.072L1488.02 404.39L1476.49 395.165L1467.14 406.847Z" fill="#5E6673"/>
      <path d="M1583.44 417.07L1574.14 428.795L1585.72 437.964L1595.01 426.238L1583.44 417.07Z" fill="#5E6673"/>
      <path d="M1650.29 407L1641 418.726L1652.58 427.895L1661.87 416.169L1650.29 407Z" fill="#5E6673"/>
      <path d="M1514.58 425.506L1505.29 437.232L1516.86 446.401L1526.16 434.675L1514.58 425.506Z" fill="#5E6673"/>
      <path d="M1621.66 447.514L1612.36 459.24L1623.94 468.408L1633.23 456.683L1621.66 447.514Z" fill="#5E6673"/>
      <path d="M1552.85 455.945L1543.56 467.67L1555.14 476.839L1564.43 465.113L1552.85 455.945Z" fill="#5E6673"/>
      <path d="M1484 464.381L1474.7 476.107L1486.28 485.276L1495.57 473.55L1484 464.381Z" fill="#5E6673"/>
      <path d="M1809 361.954L1820.53 371.179L1829.88 359.498L1818.35 350.273L1809 361.954Z" fill="#5E6673"/>
      <path d="M1739.99 370.41L1751.52 379.635L1760.87 367.953L1749.34 358.728L1739.99 370.41Z" fill="#5E6673"/>
      <path d="M1671.14 378.847L1682.67 388.072L1692.02 376.39L1680.49 367.165L1671.14 378.847Z" fill="#5E6673"/>
      <path d="M1787.44 389.07L1778.14 400.795L1789.72 409.964L1799.01 398.238L1787.44 389.07Z" fill="#5E6673"/>
      <path d="M1718.58 397.506L1709.29 409.232L1720.86 418.401L1730.16 406.675L1718.58 397.506Z" fill="#5E6673"/>
      <path d="M1825.66 419.514L1816.36 431.24L1827.94 440.408L1837.23 428.683L1825.66 419.514Z" fill="#5E6673"/>
      <path d="M1756.85 427.945L1747.56 439.67L1759.14 448.839L1768.43 437.113L1756.85 427.945Z" fill="#5E6673"/>
      <path d="M1688 436.381L1678.7 448.107L1690.28 457.276L1699.57 445.55L1688 436.381Z" fill="#5E6673"/>
    </g>
    <g opacity="0.2">
      <path d="M604 155.954L615.531 165.179L624.881 153.498L613.349 144.273L604 155.954Z" fill="#5E6673"/>
      <path d="M534.991 164.41L546.523 173.635L555.872 161.953L544.34 152.728L534.991 164.41Z" fill="#5E6673"/>
      <path d="M466.136 172.847L477.668 182.072L487.017 170.39L475.485 161.165L466.136 172.847Z" fill="#5E6673"/>
      <path d="M582.436 183.07L573.142 194.795L584.719 203.964L594.012 192.238L582.436 183.07Z" fill="#5E6673"/>
      <path d="M649.293 173L640 184.726L651.576 193.895L660.87 182.169L649.293 173Z" fill="#5E6673"/>
      <path d="M513.581 191.506L504.287 203.232L515.864 212.401L525.157 200.675L513.581 191.506Z" fill="#5E6673"/>
      <path d="M620.657 213.514L611.364 225.24L622.94 234.408L632.234 222.683L620.657 213.514Z" fill="#5E6673"/>
      <path d="M551.853 221.945L542.56 233.67L554.136 242.839L563.43 231.113L551.853 221.945Z" fill="#5E6673"/>
      <path d="M482.998 230.381L473.704 242.107L485.281 251.276L494.574 239.55L482.998 230.381Z" fill="#5E6673"/>
      <path d="M808 127.954L819.531 137.179L828.881 125.498L817.349 116.273L808 127.954Z" fill="#5E6673"/>
      <path d="M738.991 136.41L750.523 145.635L759.872 133.953L748.34 124.728L738.991 136.41Z" fill="#5E6673"/>
      <path d="M670.136 144.847L681.668 154.072L691.017 142.39L679.485 133.165L670.136 144.847Z" fill="#5E6673"/>
      <path d="M786.436 155.07L777.142 166.795L788.719 175.964L798.012 164.238L786.436 155.07Z" fill="#5E6673"/>
      <path d="M717.581 163.506L708.287 175.232L719.864 184.401L729.157 172.675L717.581 163.506Z" fill="#5E6673"/>
      <path d="M824.657 185.514L815.364 197.24L826.94 206.408L836.234 194.683L824.657 185.514Z" fill="#5E6673"/>
      <path d="M755.853 193.945L746.56 205.67L758.136 214.839L767.43 203.113L755.853 193.945Z" fill="#5E6673"/>
      <path d="M686.998 202.381L677.704 214.107L689.281 223.276L698.574 211.55L686.998 202.381Z" fill="#5E6673"/>
    </g>
    <g opacity="0.2">
      <path d="M412 659.954L423.531 669.179L432.881 657.498L421.349 648.273L412 659.954Z" fill="#5E6673"/>
      <path d="M342.991 668.41L354.523 677.635L363.872 665.953L352.34 656.728L342.991 668.41Z" fill="#5E6673"/>
      <path d="M274.136 676.847L285.668 686.072L295.017 674.39L283.485 665.165L274.136 676.847Z" fill="#5E6673"/>
      <path d="M390.436 687.07L381.142 698.795L392.719 707.964L402.012 696.238L390.436 687.07Z" fill="#5E6673"/>
      <path d="M321.581 695.506L312.287 707.232L323.864 716.401L333.157 704.675L321.581 695.506Z" fill="#5E6673"/>
      <path d="M428.657 717.514L419.364 729.24L430.94 738.408L440.234 726.683L428.657 717.514Z" fill="#5E6673"/>
      <path d="M359.853 725.945L350.56 737.67L362.136 746.839L371.43 735.113L359.853 725.945Z" fill="#5E6673"/>
      <path d="M290.998 734.381L281.704 746.107L293.281 755.276L302.574 743.55L290.998 734.381Z" fill="#5E6673"/>
    </g>
  </g>
  <defs>
    <clipPath id="clip0">
      <rect width="1839" height="930" fill="white"/>
    </clipPath>
  </defs>
</svg>
