<svg xmlns="http://www.w3.org/2000/svg" viewBox="0 0 31 31"><title>Recurso 6</title><g id="Capa_2" data-name="Capa 2"><g id="Capa_1-2" data-name="Capa 1"><rect width="31" height="31" rx="4" ry="4" style="fill:none"/><g id="_34hbmL.tif" data-name="34hbmL.tif"><path d="M16.16,6c1.28,0,2.57,0,3.85.07a6.26,6.26,0,0,1,3.16.82,4.75,4.75,0,0,1,2.29,3.36,18,18,0,0,1,.22,2.64c0,1.9,0,3.79,0,5.69a9.23,9.23,0,0,1-.37,2.95,4.8,4.8,0,0,1-3.85,3.35,15.58,15.58,0,0,1-2.64.21c-1.89,0-3.78,0-5.67,0a9.45,9.45,0,0,1-3-.37,4.81,4.81,0,0,1-3.36-3.85,15.5,15.5,0,0,1-.21-2.64c0-1.89,0-3.79,0-5.69A9.23,9.23,0,0,1,7,9.63a4.8,4.8,0,0,1,3.86-3.34,16.47,16.47,0,0,1,2.63-.22c.9,0,1.79,0,2.68,0ZM24,15.45h0c0-.76,0-1.51,0-2.26s-.05-1.45-.12-2.17a3.21,3.21,0,0,0-2.71-3,15.69,15.69,0,0,0-2.56-.2c-1.62,0-3.24,0-4.85,0A16.32,16.32,0,0,0,11.3,8a3.1,3.1,0,0,0-2.7,2.37,5.21,5.21,0,0,0-.21,1.36c0,1.73-.06,3.46-.06,5.18,0,1.1,0,2.21.13,3.3a3.21,3.21,0,0,0,2.75,3.06,15.5,15.5,0,0,0,2.54.18c1.6,0,3.2,0,4.79,0,.73,0,1.47-.05,2.19-.12a3.49,3.49,0,0,0,1.87-.72,3.55,3.55,0,0,0,1.28-2.75C24,18.36,24,16.9,24,15.45Z" style="fill:#989fa7"/><path d="M21.05,15.61a4.91,4.91,0,1,1-4.86-4.91A4.88,4.88,0,0,1,21.05,15.61Zm-4.91,3.17A3.18,3.18,0,1,0,13,15.6,3.2,3.2,0,0,0,16.14,18.78Z" style="fill:#989fa7"/><path d="M22.39,10.5a1.15,1.15,0,1,1-2.3,0,1.15,1.15,0,0,1,2.3,0Z" style="fill:#989fa7"/></g></g></g></svg>