<svg xmlns="http://www.w3.org/2000/svg" viewBox="0 0 31 31"><title>Recurso 8</title><g id="Capa_2" data-name="Capa 2"><g id="Capa_1-2" data-name="Capa 1"><rect width="31" height="31" rx="4" ry="4" style="fill:none"/><path d="M12.58,23.2A10.77,10.77,0,0,0,23.42,12.35c0-.16,0-.33,0-.49a7.65,7.65,0,0,0,1.91-2,7.41,7.41,0,0,1-2.19.6A3.82,3.82,0,0,0,24.8,8.37a7.47,7.47,0,0,1-2.42.93,3.81,3.81,0,0,0-6.59,2.61,4.14,4.14,0,0,0,.09.87A10.86,10.86,0,0,1,8,8.79a3.9,3.9,0,0,0-.51,1.92,3.79,3.79,0,0,0,1.7,3.17,3.85,3.85,0,0,1-1.73-.47v.05a3.81,3.81,0,0,0,3.06,3.73,3.73,3.73,0,0,1-1,.14,4.39,4.39,0,0,1-.72-.07,3.84,3.84,0,0,0,3.57,2.65,7.68,7.68,0,0,1-4.74,1.63,9.08,9.08,0,0,1-.91-.05,10.81,10.81,0,0,0,5.85,1.71" style="fill:#989fa7"/></g></g></svg>